<?xml version="1.0" encoding="UTF-8"?>
<!DOCTYPE svg  PUBLIC '-//W3C//DTD SVG 1.1//EN'  'http://www.w3.org/Graphics/SVG/1.1/DTD/svg11.dtd'>
<svg width="80.884mm" height="80.884mm" clip-rule="evenodd" fill-rule="evenodd" image-rendering="optimizeQuality" shape-rendering="geometricPrecision" text-rendering="geometricPrecision" viewBox="0 0 62.871 62.871" xml:space="preserve" xmlns="http://www.w3.org/2000/svg">
 <defs>
  <style type="text/css">
   <![CDATA[
    .fil2 {fill:none}
    .fil0 {fill:#FEFEFE}
    .fil1 {fill:blue;fill-rule:nonzero}
   ]]>
  </style>
   <clipPath id="a">
    <path d="m31.435 0c17.361 0 31.435 14.074 31.435 31.435s-14.074 31.435-31.435 31.435-31.435-14.074-31.435-31.435 14.074-31.435 31.435-31.435z"/>
   </clipPath>
 </defs>
  <path class="fil0" d="m31.435 0c17.361 0 31.435 14.074 31.435 31.435s-14.074 31.435-31.435 31.435-31.435-14.074-31.435-31.435 14.074-31.435 31.435-31.435z"/>
  <g clip-path="url(#a)">
    <path class="fil1" d="m17.228 14.304h11.131c6.0263 0 10.364 0.56299 13.025 1.6761 2.6613 1.1131 4.7723 2.9045 6.3076 5.3993 1.5355 2.4821 2.303 5.4633 2.303 8.9306 0 3.8512-1.0108 7.0499-3.0195 9.5959-2.0088 2.559-4.7468 4.3246-8.1885 5.3225-2.0217 0.5759-5.7066 0.87018-11.055 0.87018v14.884 8.4658 16.118h-10.504v-16.118-8.4658-46.679zm10.504 21.559h3.3266c2.6229 0 4.4526-0.19207 5.4759-0.56307 1.0237-0.37092 1.8297-0.99796 2.4182-1.8552 0.58864-0.8572 0.88293-1.9064 0.88293-3.1347 0-2.1239-0.8317-3.6719-2.4695-4.6445-1.2026-0.72926-3.4289-1.0874-6.6786-1.0874h-2.9556v11.285z"/>
  </g>
  <path class="fil2" d="m31.435 0c17.361 0 31.435 14.074 31.435 31.435s-14.074 31.435-31.435 31.435-31.435-14.074-31.435-31.435 14.074-31.435 31.435-31.435z"/>
</svg>
