<svg xmlns="http://www.w3.org/2000/svg" width="559.824" height="144.68" fill-rule="evenodd" clip-rule="evenodd" image-rendering="optimizeQuality" shape-rendering="geometricPrecision" text-rendering="geometricPrecision" viewBox="0 0 134.52 34.764" xml:space="preserve"><defs><style type="text/css">.fil0,.fil1{fill:#00f;fill-rule:nonzero}.fil1{fill:#f04}</style></defs><path d="m121.54 9.0331c2.3106 0 4.483 0.5834 6.5172 1.7349 2.0266 1.1514 3.6156 2.725 4.7517 4.6979 1.1437 1.9804 1.7118 4.1144 1.7118 6.4096 0 2.3106-0.57578 4.4676-1.7195 6.4788-1.1515 2.0112-2.7097 3.5772-4.6902 4.7132-1.9805 1.1285-4.1606 1.6965-6.5479 1.6965-3.5082 0-6.5019-1.2513-8.9814-3.7461-2.4794-2.4947-3.723-5.527-3.723-9.0964 0-3.8228 1.4048-7.0085 4.2067-9.5571 2.4564-2.2185 5.2812-3.3315 8.4746-3.3315zm0.092179 5.7803c-1.9038 0-3.4928 0.66777-4.7594 1.9959-1.2665 1.3279-1.8961 3.0245-1.8961 5.0894 0 2.134 0.62182 3.8534 1.8807 5.1738 1.2513 1.3204 2.8327 1.9804 4.7517 1.9804s3.5158-0.66777 4.79-2.0035c1.2742-1.3356 1.9113-3.0475 1.9113-5.1508 0-2.0957-0.62173-3.7998-1.873-5.1124-1.2589-1.3127-2.8555-1.9728-4.8053-1.9728z" class="fil0"/><path d="m91.256 3.1239v31.64h-6.295v-31.64h0.023522c0-1.7252 1.3987-3.1239 3.1239-3.1239s3.1239 1.3987 3.1239 3.1239h0.023612z" class="fil0"/><path d="m66.338 9.0331c2.3106 0 4.4829 0.5834 6.5172 1.7349 2.0266 1.1514 3.6155 2.725 4.7516 4.6979 1.1438 1.9804 1.7118 4.1144 1.7118 6.4096 0 2.3106-0.57569 4.4676-1.7194 6.4788-1.1516 2.0112-2.7098 3.5772-4.6903 4.7132-1.9804 1.1285-4.1606 1.6965-6.5479 1.6965-3.5082 0-6.5018-1.2513-8.9813-3.7461-2.4795-2.4947-3.7231-5.527-3.7231-9.0964 0-3.8228 1.4048-7.0085 4.2067-9.5571 2.4565-2.2185 5.2813-3.3315 8.4747-3.3315zm0.092088 5.7803c-1.9037 0-3.4928 0.66777-4.7593 1.9959-1.2666 1.3279-1.8961 3.0245-1.8961 5.0894 0 2.134 0.62173 3.8534 1.8807 5.1738 1.2513 1.3204 2.8326 1.9804 4.7517 1.9804 1.919 0 3.5157-0.66777 4.79-2.0035 1.2742-1.3356 1.9113-3.0475 1.9113-5.1508 0-2.0957-0.62173-3.7998-1.873-5.1124-1.259-1.3127-2.8556-1.9728-4.8054-1.9728z" class="fil0"/><path d="m32.042 3.1239v9.0963c1.2275-1.0623 2.4708-1.857 3.714-2.3842 1.2433-0.53509 2.5023-0.80264 3.777-0.80264 2.4945 0 4.5875 0.86557 6.295 2.5888 1.4636 1.4872 2.1875 3.6747 2.1875 6.5704v16.572h-6.2006v-10.993c0-2.9115-0.13377-4.8787-0.40913-5.9015-0.28335-1.0309-0.75541-1.802-1.4243-2.3056-0.66886-0.51148-1.4872-0.76331-2.4708-0.76331-1.2826 0-2.3764 0.42493-3.2892 1.2669-0.91271 0.84196-1.5502 1.9987-1.9042 3.4544-0.18091 0.75541-0.27536 2.4787-0.27536 5.1697v10.072h-6.2478v-31.64c0-1.7252 1.3987-3.1239 3.1239-3.1239s3.1239 1.3987 3.1239 3.1239z" class="fil0"/><path d="m-0 0.84986h6.8458c3.7061 0 6.3737 0.34619 8.0104 1.0308 1.6367 0.68458 2.935 1.7863 3.8792 3.3206 0.94431 1.5265 1.4164 3.3599 1.4164 5.4924 0 2.3685-0.62164 4.3357-1.857 5.9015-1.2354 1.5738-2.9193 2.6596-5.036 3.2734-1.2433 0.35409-3.5095 0.53509-6.7986 0.53509v14.36h-6.4602v-33.914zm6.4602 13.259h2.0459c1.6131 0 2.7383-0.11806 3.3678-0.34628 0.62954-0.22813 1.1253-0.61374 1.4872-1.1409 0.362-0.52719 0.54299-1.1724 0.54299-1.9278 0-1.3062-0.51148-2.2583-1.5187-2.8564-0.73961-0.44854-2.1088-0.66886-4.1074-0.66886h-1.8177v6.9403z" class="fil0"/><path d="m100.06 0c0.85595 0 1.5956 0.31177 2.2131 0.92924 0.61129 0.62364 0.91706 1.3756 0.91706 2.256 0 0.8742-0.2996 1.6201-0.91089 2.2314-0.61147 0.61746-1.339 0.92315-2.1827 0.92315-0.8742 0-1.62-0.31177-2.2314-0.9415-0.61755-0.62355-0.92315-1.3878-0.92315-2.2804 0-0.86203 0.3056-1.5956 0.91089-2.207 0.61138-0.60511 1.345-0.91089 2.207-0.91089z" class="fil1"/><path d="m103.22 9.4199v25.344h-6.3186v-25.39c0.96847 0.52356 2.047 0.78384 3.2328 0.78384 1.1218 0 2.1503-0.2452 3.0858-0.73843z" class="fil0"/></svg>