<?xml version="1.0" encoding="UTF-8"?>
<!DOCTYPE svg PUBLIC "-//W3C//DTD SVG 1.1//EN" "http://www.w3.org/Graphics/SVG/1.1/DTD/svg11.dtd">
<!-- Creator: CorelDRAW X6 -->
<svg xmlns="http://www.w3.org/2000/svg" xml:space="preserve" width="32.8952mm" height="32.8952mm" version="1.1" style="shape-rendering:geometricPrecision; text-rendering:geometricPrecision; image-rendering:optimizeQuality; fill-rule:evenodd; clip-rule:evenodd"
viewBox="0 0 1436 1436"
 xmlns:xlink="http://www.w3.org/1999/xlink">
 <defs>
  <style type="text/css">
   <![CDATA[
    .fil0 {fill:white}
   ]]>
  </style>
 </defs>
 <g id="Layer_x0020_1">
  <metadata id="CorelCorpID_0Corel-Layer"/>
  <path class="fil0" d="M718 0c397,0 718,322 718,718 0,397 -322,718 -718,718 -29,0 -57,-2 -85,-5l0 -38 0 -340c122,0 206,-7 253,-20 79,-23 141,-63 187,-122 46,-58 69,-131 69,-219 0,-79 -18,-147 -53,-204 -35,-57 -83,-98 -144,-123 -61,-25 -160,-38 -298,-38l-254 0 0 0 0 1032c-234,-119 -394,-361 -394,-641 0,-397 322,-718 718,-718zm-85 819l76 0c60,0 102,-4 125,-13 23,-8 42,-23 55,-42 13,-20 20,-44 20,-72 0,-49 -19,-84 -56,-106 -27,-17 -78,-25 -153,-25l-68 0 0 258 0 0z"/>
 </g>
</svg>
